<svg width="100%" height="100%" viewBox="0 0 680 460" xmlns="http://www.w3.org/2000/svg">
<style>
@keyframes flicker{0%,100%{opacity:0.04}50%{opacity:0.12}}
.bit{animation:flicker 3s ease-in-out infinite;font-family:monospace;font-size:10px;fill:#7dd3fc}
.bit:nth-child(2n){animation-delay:.7s}.bit:nth-child(3n){animation-delay:1.4s}.bit:nth-child(4n){animation-delay:2.1s}.bit:nth-child(5n){animation-delay:2.8s}
</style>
<rect width="680" height="460" fill="#050d1a"/>
<text class="bit" x="8" y="22">01</text><text class="bit" x="8" y="44">10</text><text class="bit" x="8" y="66">11</text><text class="bit" x="8" y="88">00</text><text class="bit" x="8" y="110">01</text><text class="bit" x="8" y="132">10</text><text class="bit" x="8" y="154">11</text><text class="bit" x="8" y="176">00</text><text class="bit" x="8" y="198">01</text><text class="bit" x="8" y="220">10</text><text class="bit" x="8" y="242">11</text><text class="bit" x="8" y="264">00</text><text class="bit" x="8" y="286">01</text><text class="bit" x="8" y="308">10</text><text class="bit" x="8" y="330">11</text><text class="bit" x="8" y="352">00</text><text class="bit" x="8" y="374">01</text><text class="bit" x="8" y="396">10</text><text class="bit" x="8" y="418">11</text><text class="bit" x="8" y="440">00</text>
<text class="bit" x="32" y="22">10</text><text class="bit" x="32" y="44">11</text><text class="bit" x="32" y="66">00</text><text class="bit" x="32" y="88">01</text><text class="bit" x="32" y="110">10</text><text class="bit" x="32" y="132">11</text><text class="bit" x="32" y="154">00</text><text class="bit" x="32" y="176">01</text><text class="bit" x="32" y="198">10</text><text class="bit" x="32" y="220">11</text><text class="bit" x="32" y="242">00</text><text class="bit" x="32" y="264">01</text><text class="bit" x="32" y="286">10</text><text class="bit" x="32" y="308">11</text><text class="bit" x="32" y="330">00</text><text class="bit" x="32" y="352">01</text><text class="bit" x="32" y="374">10</text><text class="bit" x="32" y="396">11</text><text class="bit" x="32" y="418">00</text><text class="bit" x="32" y="440">01</text>
<text class="bit" x="56" y="22">11</text><text class="bit" x="56" y="44">00</text><text class="bit" x="56" y="66">01</text><text class="bit" x="56" y="88">10</text><text class="bit" x="56" y="110">11</text><text class="bit" x="56" y="132">00</text><text class="bit" x="56" y="154">01</text><text class="bit" x="56" y="176">10</text><text class="bit" x="56" y="198">11</text><text class="bit" x="56" y="220">00</text><text class="bit" x="56" y="242">01</text><text class="bit" x="56" y="264">10</text><text class="bit" x="56" y="286">11</text><text class="bit" x="56" y="308">00</text><text class="bit" x="56" y="330">01</text><text class="bit" x="56" y="352">10</text><text class="bit" x="56" y="374">11</text><text class="bit" x="56" y="396">00</text><text class="bit" x="56" y="418">01</text><text class="bit" x="56" y="440">10</text>
<text class="bit" x="80" y="22">00</text><text class="bit" x="80" y="44">01</text><text class="bit" x="80" y="66">10</text><text class="bit" x="80" y="88">11</text><text class="bit" x="80" y="110">00</text><text class="bit" x="80" y="132">01</text><text class="bit" x="80" y="154">10</text><text class="bit" x="80" y="176">11</text><text class="bit" x="80" y="198">00</text><text class="bit" x="80" y="220">01</text><text class="bit" x="80" y="242">10</text><text class="bit" x="80" y="264">11</text><text class="bit" x="80" y="286">00</text><text class="bit" x="80" y="308">01</text><text class="bit" x="80" y="330">10</text><text class="bit" x="80" y="352">11</text><text class="bit" x="80" y="374">00</text><text class="bit" x="80" y="396">01</text><text class="bit" x="80" y="418">10</text><text class="bit" x="80" y="440">11</text>
<text class="bit" x="104" y="22">01</text><text class="bit" x="104" y="44">10</text><text class="bit" x="104" y="66">11</text><text class="bit" x="104" y="88">00</text><text class="bit" x="104" y="110">01</text><text class="bit" x="104" y="132">10</text><text class="bit" x="104" y="154">11</text><text class="bit" x="104" y="176">00</text><text class="bit" x="104" y="198">01</text><text class="bit" x="104" y="220">10</text><text class="bit" x="104" y="242">11</text><text class="bit" x="104" y="264">00</text><text class="bit" x="104" y="286">01</text><text class="bit" x="104" y="308">10</text><text class="bit" x="104" y="330">11</text><text class="bit" x="104" y="352">00</text><text class="bit" x="104" y="374">01</text><text class="bit" x="104" y="396">10</text><text class="bit" x="104" y="418">11</text><text class="bit" x="104" y="440">00</text>
<text class="bit" x="128" y="22">10</text><text class="bit" x="128" y="44">11</text><text class="bit" x="128" y="66">00</text><text class="bit" x="128" y="88">01</text><text class="bit" x="128" y="110">10</text><text class="bit" x="128" y="132">11</text><text class="bit" x="128" y="154">00</text><text class="bit" x="128" y="176">01</text><text class="bit" x="128" y="198">10</text><text class="bit" x="128" y="220">11</text><text class="bit" x="128" y="242">00</text><text class="bit" x="128" y="264">01</text><text class="bit" x="128" y="286">10</text><text class="bit" x="128" y="308">11</text><text class="bit" x="128" y="330">00</text><text class="bit" x="128" y="352">01</text><text class="bit" x="128" y="374">10</text><text class="bit" x="128" y="396">11</text><text class="bit" x="128" y="418">00</text><text class="bit" x="128" y="440">01</text>
<text class="bit" x="152" y="22">11</text><text class="bit" x="152" y="44">00</text><text class="bit" x="152" y="66">01</text><text class="bit" x="152" y="88">10</text><text class="bit" x="152" y="110">11</text><text class="bit" x="152" y="132">00</text><text class="bit" x="152" y="154">01</text><text class="bit" x="152" y="176">10</text><text class="bit" x="152" y="198">11</text><text class="bit" x="152" y="220">00</text><text class="bit" x="152" y="242">01</text><text class="bit" x="152" y="264">10</text><text class="bit" x="152" y="286">11</text><text class="bit" x="152" y="308">00</text><text class="bit" x="152" y="330">01</text><text class="bit" x="152" y="352">10</text><text class="bit" x="152" y="374">11</text><text class="bit" x="152" y="396">00</text><text class="bit" x="152" y="418">01</text><text class="bit" x="152" y="440">10</text>
<text class="bit" x="524" y="22">01</text><text class="bit" x="524" y="44">10</text><text class="bit" x="524" y="66">11</text><text class="bit" x="524" y="88">00</text><text class="bit" x="524" y="110">01</text><text class="bit" x="524" y="132">10</text><text class="bit" x="524" y="154">11</text><text class="bit" x="524" y="176">00</text><text class="bit" x="524" y="198">01</text><text class="bit" x="524" y="220">10</text><text class="bit" x="524" y="242">11</text><text class="bit" x="524" y="264">00</text><text class="bit" x="524" y="286">01</text><text class="bit" x="524" y="308">10</text><text class="bit" x="524" y="330">11</text><text class="bit" x="524" y="352">00</text><text class="bit" x="524" y="374">01</text><text class="bit" x="524" y="396">10</text><text class="bit" x="524" y="418">11</text><text class="bit" x="524" y="440">00</text>
<text class="bit" x="548" y="22">10</text><text class="bit" x="548" y="44">11</text><text class="bit" x="548" y="66">00</text><text class="bit" x="548" y="88">01</text><text class="bit" x="548" y="110">10</text><text class="bit" x="548" y="132">11</text><text class="bit" x="548" y="154">00</text><text class="bit" x="548" y="176">01</text><text class="bit" x="548" y="198">10</text><text class="bit" x="548" y="220">11</text><text class="bit" x="548" y="242">00</text><text class="bit" x="548" y="264">01</text><text class="bit" x="548" y="286">10</text><text class="bit" x="548" y="308">11</text><text class="bit" x="548" y="330">00</text><text class="bit" x="548" y="352">01</text><text class="bit" x="548" y="374">10</text><text class="bit" x="548" y="396">11</text><text class="bit" x="548" y="418">00</text><text class="bit" x="548" y="440">01</text>
<text class="bit" x="572" y="22">11</text><text class="bit" x="572" y="44">00</text><text class="bit" x="572" y="66">01</text><text class="bit" x="572" y="88">10</text><text class="bit" x="572" y="110">11</text><text class="bit" x="572" y="132">00</text><text class="bit" x="572" y="154">01</text><text class="bit" x="572" y="176">10</text><text class="bit" x="572" y="198">11</text><text class="bit" x="572" y="220">00</text><text class="bit" x="572" y="242">01</text><text class="bit" x="572" y="264">10</text><text class="bit" x="572" y="286">11</text><text class="bit" x="572" y="308">00</text><text class="bit" x="572" y="330">01</text><text class="bit" x="572" y="352">10</text><text class="bit" x="572" y="374">11</text><text class="bit" x="572" y="396">00</text><text class="bit" x="572" y="418">01</text><text class="bit" x="572" y="440">10</text>
<text class="bit" x="596" y="22">00</text><text class="bit" x="596" y="44">01</text><text class="bit" x="596" y="66">10</text><text class="bit" x="596" y="88">11</text><text class="bit" x="596" y="110">00</text><text class="bit" x="596" y="132">01</text><text class="bit" x="596" y="154">10</text><text class="bit" x="596" y="176">11</text><text class="bit" x="596" y="198">00</text><text class="bit" x="596" y="220">01</text><text class="bit" x="596" y="242">10</text><text class="bit" x="596" y="264">11</text><text class="bit" x="596" y="286">00</text><text class="bit" x="596" y="308">01</text><text class="bit" x="596" y="330">10</text><text class="bit" x="596" y="352">11</text><text class="bit" x="596" y="374">00</text><text class="bit" x="596" y="396">01</text><text class="bit" x="596" y="418">10</text><text class="bit" x="596" y="440">11</text>
<text class="bit" x="620" y="22">01</text><text class="bit" x="620" y="44">10</text><text class="bit" x="620" y="66">11</text><text class="bit" x="620" y="88">00</text><text class="bit" x="620" y="110">01</text><text class="bit" x="620" y="132">10</text><text class="bit" x="620" y="154">11</text><text class="bit" x="620" y="176">00</text><text class="bit" x="620" y="198">01</text><text class="bit" x="620" y="220">10</text><text class="bit" x="620" y="242">11</text><text class="bit" x="620" y="264">00</text><text class="bit" x="620" y="286">01</text><text class="bit" x="620" y="308">10</text><text class="bit" x="620" y="330">11</text><text class="bit" x="620" y="352">00</text><text class="bit" x="620" y="374">01</text><text class="bit" x="620" y="396">10</text><text class="bit" x="620" y="418">11</text><text class="bit" x="620" y="440">00</text>
<text class="bit" x="644" y="22">10</text><text class="bit" x="644" y="44">11</text><text class="bit" x="644" y="66">00</text><text class="bit" x="644" y="88">01</text><text class="bit" x="644" y="110">10</text><text class="bit" x="644" y="132">11</text><text class="bit" x="644" y="154">00</text><text class="bit" x="644" y="176">01</text><text class="bit" x="644" y="198">10</text><text class="bit" x="644" y="220">11</text><text class="bit" x="644" y="242">00</text><text class="bit" x="644" y="264">01</text><text class="bit" x="644" y="286">10</text><text class="bit" x="644" y="308">11</text><text class="bit" x="644" y="330">00</text><text class="bit" x="644" y="352">01</text><text class="bit" x="644" y="374">10</text><text class="bit" x="644" y="396">11</text><text class="bit" x="644" y="418">00</text><text class="bit" x="644" y="440">01</text>
<text class="bit" x="664" y="22">11</text><text class="bit" x="664" y="44">00</text><text class="bit" x="664" y="66">01</text><text class="bit" x="664" y="88">10</text><text class="bit" x="664" y="110">11</text><text class="bit" x="664" y="132">00</text><text class="bit" x="664" y="154">01</text><text class="bit" x="664" y="176">10</text><text class="bit" x="664" y="198">11</text><text class="bit" x="664" y="220">00</text><text class="bit" x="664" y="242">01</text><text class="bit" x="664" y="264">10</text><text class="bit" x="664" y="286">11</text><text class="bit" x="664" y="308">00</text><text class="bit" x="664" y="330">01</text><text class="bit" x="664" y="352">10</text><text class="bit" x="664" y="374">11</text><text class="bit" x="664" y="396">00</text><text class="bit" x="664" y="418">01</text><text class="bit" x="664" y="440">10</text>
<path d="M200 20 L178 20 L178 410 L200 410" fill="none" stroke="#3b82f6" stroke-width="3.5" stroke-linecap="round" stroke-linejoin="round"/>
<path d="M480 20 L502 20 L502 410 L480 410" fill="none" stroke="#3b82f6" stroke-width="3.5" stroke-linecap="round" stroke-linejoin="round"/>
<path d="M280,138 C280,114 298,96 320,96 C326,84 338,76 352,76 C370,76 386,90 388,108 C400,110 410,122 410,136 C410,154 396,168 380,168 L302,168 C290,168 280,154 280,138 Z" fill="#000d1a" stroke="#4285f4" stroke-width="2.5"/>
<path d="M210,188 C210,164 228,146 250,146 C256,134 268,126 282,126 C300,126 316,140 318,158 C330,160 340,172 340,186 C340,204 326,218 310,218 L232,218 C220,218 210,204 210,188 Z" fill="#1a0800" stroke="#ff9900" stroke-width="2.5"/>
<path d="M340,188 C340,164 358,146 380,146 C386,134 398,126 412,126 C430,126 446,140 448,158 C460,160 470,172 470,186 C470,204 456,218 440,218 L362,218 C350,218 340,204 340,188 Z" fill="#001428" stroke="#00adef" stroke-width="2.5"/>
<text x="340" y="290" text-anchor="middle" font-family="sans-serif" font-size="46" font-weight="700"><tspan fill="#f1f5f9">Nano</tspan><tspan fill="#3b82f6">-IaaS</tspan></text>
<text x="340" y="324" text-anchor="middle" font-family="sans-serif" font-size="12" fill="#475569" letter-spacing="4">MULTI-CLOUD EXPLORER</text>
<line x1="275" y1="348" x2="325" y2="348" stroke="#ff9900" stroke-width="2.5" stroke-linecap="round"/>
<line x1="325" y1="348" x2="358" y2="348" stroke="#4285f4" stroke-width="2.5" stroke-linecap="round"/>
<line x1="358" y1="348" x2="408" y2="348" stroke="#00adef" stroke-width="2.5" stroke-linecap="round"/>
<text x="300" y="368" text-anchor="middle" font-family="sans-serif" font-size="11" fill="#ff9900">AWS</text>
<text x="341" y="368" text-anchor="middle" font-family="sans-serif" font-size="11" fill="#4285f4">GCP</text>
<text x="383" y="368" text-anchor="middle" font-family="sans-serif" font-size="11" fill="#00adef">AZURE</text>
</svg>